<svg id="Layer_1" data-name="Layer 1" xmlns="http://www.w3.org/2000/svg" viewBox="0 0 64 64">
    <defs>
        <style>.cls-1{fill:#fff;}.cls-2{fill:#ff5e5b;}.cls-3{fill:#ff5f5f;}</style>
    </defs>
    <g id="Layer_1-2" data-name="Layer 1">
        <g id="Layer_1-3" data-name="Layer 1">
            <path class="cls-1"
                  d="M48.59,34.14a24.74,24.74,0,0,1-3.94.12V20.76H47.4a5.91,5.91,0,0,1,4.65,2.16,6.08,6.08,0,0,1,1.44,4.18C53.49,31.52,51.22,33.31,48.59,34.14Zm11.59-9.43a12.44,12.44,0,0,0-5.37-8.36,14.13,14.13,0,0,0-8.12-2.51H5.57a2.18,2.18,0,0,0-2,2.16v.48s-.11,18.16.12,28c.35,5.74,6.09,5.74,6.09,5.74s18.75,0,27.84-.12a5.32,5.32,0,0,0,1.31-.11c5.13-1.31,5.61-6.09,5.61-8.73C54.8,41.67,62.09,34.38,60.18,24.71Z"/>
            <path d="M61.67,24.43h0a14,14,0,0,0-6-9.32,15.81,15.81,0,0,0-9-2.77H5.57A3.67,3.67,0,0,0,2,16v.47c0,.18-.12,18.29.11,28v.06a7,7,0,0,0,4,6.29,9,9,0,0,0,3.58.87h0c.77,0,18.94,0,27.84-.11a6.32,6.32,0,0,0,1.66-.16h0A8.18,8.18,0,0,0,45,46.69a11.93,11.93,0,0,0,1-3.95,19,19,0,0,0,7-1.46,15.33,15.33,0,0,0,5.64-4.07A14.78,14.78,0,0,0,61.67,24.43ZM5.17,44.36c-.23-9.54-.12-27.14-.12-27.89V16c0-.05.12-.65.52-.65H46.69a12.71,12.71,0,0,1,7.25,2.23l0,0A11,11,0,0,1,58.7,25a11.84,11.84,0,0,1-2.43,10.23c-2.63,3.06-6.89,4.69-11.69,4.47a1.47,1.47,0,0,0-1.11.42A1.5,1.5,0,0,0,43,41.21c0,4.11-1.46,6.49-4.46,7.26a3.75,3.75,0,0,1-.94.07h0c-7.9.1-23.17.11-27.66.11H9.75a6.07,6.07,0,0,1-2.26-.56A4.12,4.12,0,0,1,5.17,44.36Z"/>
            <path d="M44.54,35.77c.05,0,.54,0,1.31,0a27.64,27.64,0,0,0,2.91-.15,1.5,1.5,0,0,0,.29-.06c4-1.26,6-4.11,6-8.49a7.63,7.63,0,0,0-1.79-5.16,7.41,7.41,0,0,0-5.81-2.69H44.65a1.52,1.52,0,0,0-1.52,1.51v13.5A1.52,1.52,0,0,0,44.54,35.77Zm1.62-3V22.27H47.4a4.47,4.47,0,0,1,3.49,1.61l0,0A4.62,4.62,0,0,1,52,27.1c0,3-1.1,4.69-3.7,5.56C47.6,32.73,46.89,32.77,46.16,32.78Z"/>
            <path class="cls-2"
                  d="M23.73,42.51c.48.23.72,0,.72,0s6.57-6,9.56-9.44c2.63-3.1,2.75-8.25-1.67-10.15s-8.25,2.27-8.25,2.27c-3.23-3.59-8.12-3.35-10.39-1s-1.44,6.45.23,8.84c1.56,2.15,8.49,8.36,9.56,9.32C23.49,42.27,23.62,42.39,23.73,42.51Z"/>
            <path class="cls-3"
                  d="M24,42.68a.61.61,0,0,0,.5-.17s6.57-6,9.56-9.44c2.63-3.1,2.75-8.25-1.67-10.15s-8.25,2.27-8.25,2.27c-3.23-3.59-8.12-3.35-10.39-1s-1.44,6.45.23,8.84c1.47,2,8.8,8.63,9.71,9.45A.66.66,0,0,0,24,42.68Z"/>
        </g>
    </g>
</svg>