<svg id="Layer_1" data-name="Layer 1" xmlns="http://www.w3.org/2000/svg" viewBox="0 0 64 64"><path d="M50.33,22.58a7.33,7.33,0,0,0,2.78-4.08c.77-2.05,1.38-1.9,2.92-.56.92.82,1.43,1.7.29,3.3,1.5-.15,2.47-.22,3.44-.34s1.35.26,1.45,1.26c.2,1.94-.7,3.05-2.88,3.66,1.9.68,2.16,1.76,1.91,3.3s-1.07,1.76-2.27,1.8c1,2.3.4,3.27-1.92,3.38s-3.14.83-2.58,3.15c.68,2.78-.16,4.94-1.85,7.07A53.56,53.56,0,0,1,42.29,54c-6.85,5.19-13.61,5.21-20.45.05A53.07,53.07,0,0,1,12,44a6.89,6.89,0,0,1-1.48-6.2,4.12,4.12,0,0,0,.14-2c-.41-1.39-1.55-1.54-2.87-1.54q-3.12,0-1.75-3.33a2.07,2.07,0,0,1-2.3-2c-.17-1.46,0-2.52,2.05-3.07-2.46-.65-3.27-1.93-3-3.92.1-.72.41-1.11,1.15-1.06,1,.08,2,.19,3.17.3A5.86,5.86,0,0,1,7.18,19a4.9,4.9,0,0,1,1.58-1.63c1-.72,1.33-.57,1.93.6s1.32,2.56,2,3.81a3.63,3.63,0,0,0,.94.83c1.71-1.35,2.39-2.94,1.69-5s-1.45-4.17-2.18-6.26a9.8,9.8,0,0,1-.7-2.17,2.48,2.48,0,0,1,3.4-2.72c3.68,1.31,7,3.19,9.15,6.62a8.55,8.55,0,0,0,.88,1.28,1.83,1.83,0,0,0,2.59.13,1.79,1.79,0,0,0,.48-.7c.71-1.74,1.32-3.52,2.07-5.23a1.79,1.79,0,0,1,1.08-.86c.21-.05.69.47.83.82.66,1.57,1.27,3.17,1.84,4.77.3.83.55,1.54,1.66,1.61a1.93,1.93,0,0,0,2.07-1.1,16.15,16.15,0,0,1,8.36-6.87c1.19-.47,2.46-1.48,3.75-.13s1,2.69.38,4.25c-.86,2-1.48,4.15-2.23,6.23A4.34,4.34,0,0,0,50.33,22.58Zm-32,12.77c-.53,1.43-1.14,2.82-1.54,4.27a2.8,2.8,0,0,0,.3,1.92,26.26,26.26,0,0,0,8.78,9.79,10.92,10.92,0,0,0,12.72-.17,26,26,0,0,0,8.4-9.48,3,3,0,0,0,.42-1.91c-.39-1.5-1-3-1.52-4.42l-.65,0a9.67,9.67,0,0,0-.5,2c0,1.1.17,2.21.11,3.32,0,.61-.34,1.69-.61,1.72a3.48,3.48,0,0,1-2-.63,18.12,18.12,0,0,1-2-1.8c-6.51,3.53-9.15,3.53-16.39.09-.79.71-1.57,1.5-2.45,2.16-1.1.83-2.05.45-2.1-.9a21.19,21.19,0,0,1,.22-3.82A1.83,1.83,0,0,0,18.28,35.35Zm7,.17c1.24-4.27-.85-9.92-4.06-11.82A1.17,1.17,0,0,0,19.6,24a9.86,9.86,0,0,0-2.89,5.52,1.61,1.61,0,0,0,1,1.82l7.48,4.2Zm13.35,0C40.94,34.28,43,33.22,45,32.1c2.71-1.54,2.85-1.94,1.67-4.8a10,10,0,0,0-.55-1.14c-1.84-3.31-2.9-3.41-5.23-.42a10.79,10.79,0,0,0-2.26,9.82Zm-6.4,1.23c1.59-.11,3.33-.55,4.26-2.31s.42-3.26-.71-4.71c-.84-1.07-1.58-2.21-2.43-3.27-1.14-1.44-1.47-1.43-2.66.08-.84,1.06-1.56,2.22-2.42,3.27a4,4,0,0,0-.6,4.71c.9,1.64,2.49,2.18,4.55,2.23Z"/><path d="M28.09,31.86c2.31,2.63,5.46,2.66,7.71.3,0,2.5-1.08,3.55-3.65,3.63s-3.78-.91-4.06-3.93Z"/><path d="M29.46,29.85c1.7,1.21,3.37,1.54,5-.06a1.63,1.63,0,0,1-.28,2.53,3.73,3.73,0,0,1-4,.16,1.81,1.81,0,0,1-.68-2.63Z"/><path d="M32,26.52c1.67,1.79,1.93,2.43,1.28,3a1.92,1.92,0,0,1-2.36.05C30.15,29,30.32,28.45,32,26.52Z"/></svg>