<?xml version="1.0" standalone="no"?>
<!DOCTYPE svg PUBLIC "-//W3C//DTD SVG 20010904//EN"
 "http://www.w3.org/TR/2001/REC-SVG-20010904/DTD/svg10.dtd">
<svg version="1.0" xmlns="http://www.w3.org/2000/svg"
 width="512.000000pt" height="512.000000pt" viewBox="0 0 512.000000 512.000000"
 preserveAspectRatio="xMidYMid meet">
<metadata>
Created by potrace 1.14, written by Peter Selinger 2001-2017
</metadata>
<g transform="translate(0.000000,512.000000) scale(0.100000,-0.100000)"
fill="#000000" stroke="none">
<path d="M93 2610 l0 -2380 752 0 751 0 0 668 -1 668 628 0 629 -1 332 -665
332 -665 792 -3 c436 -1 792 0 792 3 0 7 -132 262 -160 310 -9 17 -54 102
-100 190 -46 88 -95 183 -110 210 -15 28 -52 97 -82 155 -30 58 -86 164 -124
235 -79 151 -140 267 -205 391 l-47 89 57 34 c127 78 309 238 398 352 100 128
134 182 200 319 30 63 59 122 63 131 13 25 68 224 80 286 5 32 12 67 14 78 27
139 27 464 0 645 -26 174 -115 472 -159 530 -6 8 -19 33 -29 55 -35 79 -152
242 -235 328 -71 74 -223 201 -241 202 -3 1 -23 12 -45 27 -118 75 -283 136
-453 168 -104 18 -166 19 -1968 20 l-1861 0 0 -2380z m3096 1036 c165 -39 252
-165 245 -358 -7 -215 -95 -342 -259 -376 -53 -10 -1574 -13 -1576 -3 -5 34
-3 729 2 736 9 12 1536 13 1588 1z"/>
</g>
</svg>
