<?xml version="1.0" standalone="no"?>
<!DOCTYPE svg PUBLIC "-//W3C//DTD SVG 20010904//EN"
 "http://www.w3.org/TR/2001/REC-SVG-20010904/DTD/svg10.dtd">
<svg version="1.0" xmlns="http://www.w3.org/2000/svg"
 width="700.000000pt" height="700.000000pt" viewBox="0 0 700.000000 700.000000"
 preserveAspectRatio="xMidYMid meet">
<metadata>
Created by potrace 1.14, written by Peter Selinger 2001-2017
</metadata>
<g transform="translate(0.000000,700.000000) scale(0.100000,-0.100000)"
fill="#000000" stroke="none">
<path d="M3278 6995 c-1 -1 -39 -5 -83 -9 -118 -9 -218 -23 -360 -51 -16 -3
-43 -8 -60 -11 -68 -11 -298 -76 -410 -114 -115 -40 -134 -47 -217 -84 -20 -9
-39 -16 -43 -16 -13 0 -308 -151 -383 -197 -163 -98 -400 -267 -481 -342 -15
-14 -48 -42 -72 -62 -61 -51 -254 -248 -336 -344 -253 -297 -470 -665 -603
-1025 -48 -131 -52 -141 -56 -155 -1 -5 -16 -56 -33 -111 -35 -113 -83 -336
-101 -459 -6 -44 -13 -93 -15 -110 -20 -142 -27 -501 -12 -690 12 -164 42
-351 83 -525 79 -330 229 -700 399 -983 30 -49 55 -93 55 -98 0 -4 3 -9 8 -11
4 -2 33 -41 64 -88 157 -234 389 -488 629 -690 103 -86 351 -270 364 -270 3 0
35 -19 72 -43 291 -187 735 -361 1113 -437 25 -5 56 -12 70 -15 41 -8 220 -34
300 -42 151 -16 672 -8 765 12 11 2 38 7 60 10 413 57 828 197 1209 407 184
101 468 302 625 443 228 203 487 508 626 736 212 348 354 679 440 1028 40 164
58 252 71 351 3 25 7 52 9 60 27 105 27 689 0 875 -30 209 -68 392 -111 532
-13 46 -25 85 -25 88 -2 29 -120 327 -179 450 -410 859 -1137 1504 -2045 1813
-161 55 -424 120 -555 137 -19 3 -46 7 -60 10 -13 2 -54 7 -90 11 -36 3 -76 8
-90 11 -26 5 -536 13 -542 8z"/>
</g>
</svg>
